<?xml version="1.0" standalone="no"?>
<svg viewBox="0 0 200 200" xmlns="http://www.w3.org/2000/svg">
  <path fill="#64B9DD" d="M36.8,-65.8C47.2,-57.7,54.8,-46.9,60.3,-35.4C65.9,-24,69.4,-12,72.5,1.8C75.6,15.6,78.3,31.1,74,44.9C69.8,58.6,58.7,70.6,45.2,74.3C31.8,78,15.9,73.4,1.7,70.5C-12.5,67.6,-25,66.3,-34.9,60.5C-44.8,54.8,-52.1,44.5,-60.3,33.7C-68.5,22.9,-77.7,11.4,-78.5,-0.5C-79.3,-12.4,-71.8,-24.8,-65.4,-38.7C-59,-52.7,-53.7,-68.3,-43,-76.2C-32.3,-84.1,-16.1,-84.2,-1.5,-81.7C13.2,-79.1,26.4,-73.8,36.8,-65.8Z" transform="translate(100 100)" />
</svg>
